<svg xmlns="http://www.w3.org/2000/svg" width="800" height="600" viewBox="0 0 800 600">
  <!-- Background -->
  <rect width="800" height="600" fill="#f8f9fa" />
  
  <!-- Team illustration -->
  <g transform="translate(100, 100)">
    <!-- Person 1 (center) -->
    <g transform="translate(300, 200)">
      <!-- Head -->
      <circle cx="0" cy="0" r="50" fill="#F26522" />
      <circle cx="-15" cy="-10" r="5" fill="#FFFFFF" />
      <circle cx="15" cy="-10" r="5" fill="#FFFFFF" />
      <path d="M-15 20 Q0 35 15 20" stroke="#FFFFFF" stroke-width="3" fill="none" />
      
      <!-- Body -->
      <path d="M0 50 L0 150" stroke="#F26522" stroke-width="10" />
      <path d="M0 70 L-50 120" stroke="#F26522" stroke-width="8" />
      <path d="M0 70 L50 120" stroke="#F26522" stroke-width="8" />
      <path d="M0 150 L-30 220" stroke="#F26522" stroke-width="8" />
      <path d="M0 150 L30 220" stroke="#F26522" stroke-width="8" />
    </g>
    
    <!-- Person 2 (left) -->
    <g transform="translate(150, 220)">
      <!-- Head -->
      <circle cx="0" cy="0" r="40" fill="#000000" />
      <circle cx="-12" cy="-8" r="4" fill="#FFFFFF" />
      <circle cx="12" cy="-8" r="4" fill="#FFFFFF" />
      <path d="M-10 15 Q0 25 10 15" stroke="#FFFFFF" stroke-width="2" fill="none" />
      
      <!-- Body -->
      <path d="M0 40 L0 120" stroke="#000000" stroke-width="8" />
      <path d="M0 60 L-40 100" stroke="#000000" stroke-width="6" />
      <path d="M0 60 L40 100" stroke="#000000" stroke-width="6" />
      <path d="M0 120 L-25 180" stroke="#000000" stroke-width="6" />
      <path d="M0 120 L25 180" stroke="#000000" stroke-width="6" />
    </g>
    
    <!-- Person 3 (right) -->
    <g transform="translate(450, 220)">
      <!-- Head -->
      <circle cx="0" cy="0" r="40" fill="#000000" />
      <circle cx="-12" cy="-8" r="4" fill="#FFFFFF" />
      <circle cx="12" cy="-8" r="4" fill="#FFFFFF" />
      <path d="M-10 15 Q0 25 10 15" stroke="#FFFFFF" stroke-width="2" fill="none" />
      
      <!-- Body -->
      <path d="M0 40 L0 120" stroke="#000000" stroke-width="8" />
      <path d="M0 60 L-40 100" stroke="#000000" stroke-width="6" />
      <path d="M0 60 L40 100" stroke="#000000" stroke-width="6" />
      <path d="M0 120 L-25 180" stroke="#000000" stroke-width="6" />
      <path d="M0 120 L25 180" stroke="#000000" stroke-width="6" />
    </g>
  </g>
  
  <!-- Digital elements -->
  <g opacity="0.1">
    <circle cx="100" cy="100" r="50" fill="#F26522" />
    <circle cx="700" cy="500" r="70" fill="#F26522" />
    <rect x="650" y="100" width="100" height="100" fill="#F26522" />
    <rect x="50" y="450" width="100" height="100" fill="#F26522" />
  </g>
  
  <!-- Abstract connecting lines -->
  <g stroke="#000000" stroke-width="1" opacity="0.2">
    <line x1="100" y1="100" x2="400" y2="300" />
    <line x1="700" y1="500" x2="400" y2="300" />
    <line x1="700" y1="100" x2="400" y2="300" />
    <line x1="100" y1="500" x2="400" y2="300" />
  </g>
</svg>