<?xml version="1.0" encoding="UTF-8"?><svg id="Layer_1" xmlns="http://www.w3.org/2000/svg" width="5.069" height="13.528" viewBox="0 0 5.069 13.528"><path d="M.975,8.618c-.237-.677-.515-1.343-.703-2.033-.32-1.173-.38-2.364-.059-3.556C.53,1.853,1.186.889,2.062.062c.025-.024.057-.042.088-.058.014-.007.033-.003.043-.004,0,.251-.016.503.003.753.064.833.547,1.424,1.186,1.885.44.317.934.558,1.405.832.082.048.166.091.282.155-.227.277-.513.409-.797.535-.809.361-1.65.33-2.492.157-.208-.043-.305.008-.391.191-.469.998-.561,2.049-.457,3.128.031.32.077.638.117.956-.025.008-.049.016-.074.024Z" fill="#e85824" stroke-width="0"/><path d="M1.963,5.128c.282.242.591.459.842.73.618.668.867,1.474.821,2.383-.045.884-.312,1.714-.572,2.547-.279.892-.564,1.782-.847,2.673-.005.014-.024.024-.07.068-.382-.353-.688-.753-.839-1.264-.251-.85-.068-1.681.115-2.51.19-.86.431-1.713.564-2.582.08-.522,0-1.069-.017-1.604-.004-.128-.042-.256-.064-.383.023-.019.046-.038.068-.056ZM1.843,9.923c-.457.43-.354,2.341.138,2.691.035-.072.072-.139.101-.209.258-.617.517-1.233.769-1.852.033-.081.028-.178.041-.267-.083.006-.166.01-.249.017-.034.003-.067.009-.036.005-.105-.115-.191-.273-.252-.264-.125.018-.237.126-.365.204-.054-.119-.099-.217-.147-.324Z" fill="#e85824" stroke-width="0"/><path d="M3.54.262c-.1.607-.199,1.211-.297,1.81-.454-.133-.714-.852-.417-1.241.24-.313.506-.518.714-.569Z" fill="#e85824" stroke-width="0"/><path d="M1.843,9.923c.049.107.093.204.147.324.128-.078.24-.185.365-.204.061-.009.147.148.252.264-.031.004.003-.002.036-.005.083-.007.166-.011.249-.017-.013.09-.008.186-.041.267-.252.619-.511,1.236-.769,1.852-.029.07-.066.137-.101.209-.492-.35-.595-2.261-.138-2.691Z" fill="#fff" stroke-width="0"/></svg>