<svg xmlns="http://www.w3.org/2000/svg" width="1920" height="1080" viewBox="0 0 1920 1080">
  <!-- Background gradient -->
  <defs>
    <linearGradient id="grad1" x1="0%" y1="0%" x2="100%" y2="100%">
      <stop offset="0%" style="stop-color:#000000;stop-opacity:1" />
      <stop offset="100%" style="stop-color:#333333;stop-opacity:1" />
    </linearGradient>
    
    <!-- Pattern for background texture -->
    <pattern id="pattern1" width="100" height="100" patternUnits="userSpaceOnUse">
      <circle cx="50" cy="50" r="1.5" fill="#F26522" opacity="0.3" />
    </pattern>
    
    <!-- Digital elements pattern -->
    <pattern id="digitalPattern" width="200" height="200" patternUnits="userSpaceOnUse">
      <!-- Digital circuit lines -->
      <path d="M0 50 H200" stroke="#F26522" stroke-width="0.5" opacity="0.2" />
      <path d="M0 100 H200" stroke="#F26522" stroke-width="0.5" opacity="0.2" />
      <path d="M0 150 H200" stroke="#F26522" stroke-width="0.5" opacity="0.2" />
      <path d="M50 0 V200" stroke="#F26522" stroke-width="0.5" opacity="0.2" />
      <path d="M100 0 V200" stroke="#F26522" stroke-width="0.5" opacity="0.2" />
      <path d="M150 0 V200" stroke="#F26522" stroke-width="0.5" opacity="0.2" />
      
      <!-- Circuit nodes -->
      <circle cx="50" cy="50" r="3" fill="#F26522" opacity="0.3" />
      <circle cx="50" cy="100" r="3" fill="#F26522" opacity="0.3" />
      <circle cx="50" cy="150" r="3" fill="#F26522" opacity="0.3" />
      <circle cx="100" cy="50" r="3" fill="#F26522" opacity="0.3" />
      <circle cx="100" cy="100" r="3" fill="#F26522" opacity="0.3" />
      <circle cx="100" cy="150" r="3" fill="#F26522" opacity="0.3" />
      <circle cx="150" cy="50" r="3" fill="#F26522" opacity="0.3" />
      <circle cx="150" cy="100" r="3" fill="#F26522" opacity="0.3" />
      <circle cx="150" cy="150" r="3" fill="#F26522" opacity="0.3" />
    </pattern>
  </defs>
  
  <!-- Main background -->
  <rect width="1920" height="1080" fill="url(#grad1)" />
  
  <!-- Pattern overlay -->
  <rect width="1920" height="1080" fill="url(#pattern1)" />
  
  <!-- Digital pattern overlay -->
  <rect width="1920" height="1080" fill="url(#digitalPattern)" />
  
  <!-- Abstract shapes -->
  <circle cx="200" cy="200" r="300" fill="#F26522" opacity="0.05" />
  <circle cx="1720" cy="880" r="400" fill="#F26522" opacity="0.05" />
  
  <!-- Diagonal lines -->
  <line x1="0" y1="0" x2="1920" y2="1080" stroke="#F26522" stroke-width="1" opacity="0.1" />
  <line x1="1920" y1="0" x2="0" y2="1080" stroke="#F26522" stroke-width="1" opacity="0.1" />
</svg>